<?xml version="1.0" encoding="UTF-8"?>
<svg width="34px" height="26px" viewBox="0 0 34 26" version="1.1" xmlns="http://www.w3.org/2000/svg" xmlns:xlink="http://www.w3.org/1999/xlink">
    <!-- Generator: Sketch 52.5 (67469) - http://www.bohemiancoding.com/sketch -->
    <title>Fill 1</title>
    <desc>Created with Sketch.</desc>
    <g id="Home--⚡️" stroke="none" stroke-width="1" fill="none" fill-rule="evenodd">
        <g id="10_Home-Timeline" transform="translate(-16.000000, -60.000000)" fill="#B5081A">
            <path d="M45.7221457,69.9127587 L45.0581273,76.0874573 C44.9165391,77.3941793 44.1500344,77.9310345 43.5063704,77.9310345 C42.5745307,77.9310345 42.2460032,77.3185963 42.3779498,76.0874573 L43.0410755,69.9127587 C43.1819495,68.6060367 43.9491684,68.0689655 44.5922967,68.0689655 C45.5248507,68.0689655 45.8539138,68.6814037 45.7221457,69.9127587 M34.6719609,69.9127587 L34.0073909,76.0874573 C33.8672653,77.3941793 33.1009481,77.9310345 32.4567275,77.9310345 C31.5258296,77.9310345 31.1959544,77.3185963 31.3278688,76.0874573 L31.9910108,69.9127587 C32.1323859,68.6060367 32.8987031,68.0689655 33.5445303,68.0689655 C34.4740001,68.0689655 34.8044108,68.6814037 34.6719609,69.9127587 M20.605744,70.1452981 C20.736001,68.9309079 21.6375838,68.0689655 22.599552,68.0689655 C23.5617025,68.0689655 23.65,68.8911923 23.65,69.2161795 C23.65,70.484129 22.0287198,71.8911967 20.25,73.4482759 C20.25,73.4482759 20.464541,71.4554596 20.605744,70.1452981 M49.8833739,76.3642302 C49.5967765,75.6674365 48.8602948,75.3297384 48.1944182,75.5655339 L48.900669,69.8094121 C49.227044,67.1504101 47.4221367,65.0994341 45.0338914,65.0994341 C42.3419443,65.0994341 40.8713675,67.3889597 40.5262971,69.4524351 C40.3297959,70.6390393 40.1993255,70.8500477 39.8077153,71.2729119 L36.9874856,74.3134662 L38.5288664,61.65021 C38.6269181,60.8489714 38.0970809,60.116586 37.344887,60.0123529 C36.5936876,59.9083317 35.9061323,60.4727155 35.8082795,61.2735304 L35.300121,65.4271751 C35.300121,65.4271751 34.6483655,65.0994341 33.7408403,65.0994341 C31.517473,65.0994341 29.3708764,66.9192754 29.0639924,69.4524351 C28.9333231,70.5295099 28.7236953,70.9042828 28.3436206,71.3699418 C28.0073013,71.7820013 24.9820182,75.4795204 24.9820182,75.4795204 C24.5345205,75.9835254 23.247915,77.5976546 21.3047807,77.5976546 C20.2956237,77.5976546 20.16038,76.4729122 20.16038,76.4729122 L23.0458449,74.3316858 C24.2407631,73.4446456 26.7463523,71.5868822 26.7463523,69.0249101 C26.7463523,66.7230969 25.0681366,65.0994341 22.8913091,65.0994341 C20.2482884,65.0994341 18.4917109,67.1684178 18.1816447,69.4570959 L17.4210976,75.0483939 C17.4173187,75.0697913 17.4149321,75.0907651 17.4125454,75.1123744 L17.4125454,75.1100439 L16.5338589,75.7748474 C15.9348087,76.2674121 15.8230337,77.1851714 16.2844535,77.824764 C16.5563332,78.1984777 16.9618655,78.3944443 17.3745578,78.3946561 C17.4956805,78.3946561 17.6175988,78.3726231 17.7381248,78.3374551 C18.3091318,79.6880357 19.4845591,80.5223238 21.1991712,80.5223238 C24.3557203,80.5223238 26.1387499,78.3421159 26.8559395,77.4660922 L28.311003,75.6871391 C27.927945,78.8509935 29.885797,80.5223238 32.0254325,80.5223238 C34.5240606,80.5223238 35.3933994,79.6554099 37.7410716,77.360588 L39.7013103,75.3627879 L38.5988749,84.3499224 C38.5010221,85.151161 39.0300638,85.8843939 39.7820588,85.9877795 C40.5334571,86.0911651 41.2224046,85.527205 41.3204563,84.726602 L41.8727679,80.1941592 C41.8727679,80.1941592 42.5378488,80.5320692 43.4459708,80.5320692 C44.0830086,80.5320692 44.7146764,80.3818634 45.2990089,80.1087813 L49.1795098,78.2902112 C49.8740261,77.9654363 50.1886667,77.1036069 49.8833739,76.3642302" id="Fill-1"></path>
        </g>
    </g>
</svg>